<?xml version="1.0" standalone="no"?>
<!DOCTYPE svg PUBLIC "-//W3C//DTD SVG 20010904//EN"
 "http://www.w3.org/TR/2001/REC-SVG-20010904/DTD/svg10.dtd">
<svg version="1.0" xmlns="http://www.w3.org/2000/svg"
 width="512.000000pt" height="512.000000pt" viewBox="0 0 512.000000 512.000000"
 preserveAspectRatio="xMidYMid meet">
<metadata>
Created by potrace 1.11, written by Peter Selinger 2001-2013
</metadata>
<g transform="translate(0.000000,512.000000) scale(0.100000,-0.100000)"
fill="#000000" stroke="none">
<path d="M1460 4386 c-8 -7 -44 -29 -80 -48 -36 -19 -105 -58 -154 -86 -49
-29 -93 -52 -97 -52 -5 0 -9 -4 -9 -10 0 -5 -5 -10 -10 -10 -12 0 -272 -147
-280 -158 -3 -4 -9 -8 -15 -9 -25 -4 -164 -91 -157 -98 4 -5 2 -5 -4 -2 -6 3
-60 -22 -120 -56 l-109 -62 -2 -360 c-2 -198 -4 -510 -5 -692 -2 -183 1 -333
5 -333 5 0 5 -6 0 -12 -10 -17 -11 -119 -1 -139 4 -9 4 -20 0 -24 -10 -10 -10
-105 1 -105 4 0 5 -6 0 -12 -11 -19 -12 -61 -1 -75 5 -6 5 -14 0 -17 -5 -3 -9
-24 -10 -46 -1 -30 1 -39 11 -34 9 6 9 5 0 -7 -8 -10 -12 -97 -12 -310 l0
-295 52 -28 c29 -15 81 -45 116 -66 35 -22 69 -36 74 -33 6 3 7 1 4 -4 -8 -12
20 -26 34 -17 5 3 8 1 7 -5 -3 -9 91 -69 227 -146 70 -39 108 -61 188 -109 43
-25 80 -46 83 -46 3 0 18 -10 33 -21 16 -12 34 -18 40 -14 6 3 10 2 9 -4 -2
-6 24 -26 57 -44 33 -17 65 -37 71 -43 7 -6 26 -17 43 -24 26 -11 34 -10 49 2
9 8 28 20 42 26 14 7 48 25 75 42 28 16 65 37 83 46 17 9 32 20 32 23 0 4 6 8
13 8 17 1 168 89 162 95 -3 2 1 5 8 5 10 0 113 54 177 93 8 5 92 53 185 106
94 53 172 99 175 103 3 3 12 7 20 9 8 2 22 9 30 15 8 7 41 26 72 42 32 17 58
33 58 38 0 4 5 7 11 7 5 0 60 28 120 63 61 34 138 77 172 96 34 18 65 38 69
45 4 6 8 7 8 2 0 -5 8 -3 17 5 10 8 29 20 42 27 55 31 89 51 146 82 33 18 67
38 75 45 8 7 25 16 37 19 13 4 29 13 36 19 13 12 42 28 122 70 76 40 120 72
123 91 2 12 -1 16 -9 10 -9 -5 -9 -3 -3 7 13 21 13 73 0 81 -8 6 -8 8 0 8 16
0 16 180 0 180 -7 0 -6 4 2 9 8 4 13 19 12 32 -1 13 -2 73 -1 133 l1 109 21
-27 c28 -36 84 -37 101 -1 6 14 14 25 18 25 3 0 6 -41 5 -90 0 -60 3 -94 11
-101 7 -6 39 -9 71 -7 l58 3 0 215 0 215 -67 3 c-73 3 -73 3 -118 -81 -9 -17
-21 -32 -26 -34 -5 -2 -23 25 -41 60 l-32 62 1 198 2 197 -60 36 c-51 31 -120
70 -189 108 -11 6 -22 13 -25 16 -16 16 -68 38 -75 32 -5 -4 -5 -2 -2 4 3 6
-25 27 -65 50 -98 54 -122 68 -152 88 -15 9 -32 14 -38 10 -7 -5 -8 -3 -3 6 6
10 4 12 -9 7 -10 -4 -15 -3 -11 3 7 12 -32 33 -47 24 -7 -4 -8 -3 -4 4 7 11
-38 38 -56 34 -5 -1 -8 2 -8 7 0 8 -44 36 -190 118 -14 8 -43 25 -65 39 -22
13 -51 30 -65 37 -14 6 -27 14 -30 18 -3 3 -25 16 -50 30 -25 13 -46 27 -48
32 -2 4 -8 7 -13 7 -5 0 -37 17 -71 38 -35 21 -70 42 -78 46 -8 4 -33 18 -55
31 -22 14 -51 29 -65 35 -13 6 -27 15 -30 19 -7 10 -150 91 -161 91 -5 0 -9 5
-9 10 0 6 -4 10 -9 10 -5 0 -76 40 -158 88 -186 111 -277 162 -289 162 -5 0
-16 -6 -24 -14z m-590 -540 c0 -3 -4 -8 -10 -11 -5 -3 -10 -1 -10 4 0 6 5 11
10 11 6 0 10 -2 10 -4z m120 -6 c0 -5 -2 -10 -4 -10 -3 0 -8 5 -11 10 -3 6 -1
10 4 10 6 0 11 -4 11 -10z m136 -2 c3 -4 -1 -5 -10 -4 -8 1 -18 5 -22 8 -3 4
1 5 10 4 8 -1 18 -5 22 -8z m120 0 c3 -4 -1 -5 -10 -4 -8 1 -18 5 -22 8 -3 4
1 5 10 4 8 -1 18 -5 22 -8z m1418 -156 c3 -5 -1 -9 -9 -9 -8 0 -12 4 -9 9 3 4
7 8 9 8 2 0 6 -4 9 -8z"/>
<path d="M3967 2753 c-2 -5 -5 -29 -6 -55 -3 -51 16 -71 58 -63 24 4 23 9 24
-105 l0 -84 -29 -1 c-43 -1 -51 -10 -52 -57 -3 -69 -3 -69 159 -66 l144 3 3
58 c2 34 -1 57 -8 58 -5 1 -19 3 -30 4 -11 1 -25 3 -30 4 -7 1 -10 35 -8 94 3
90 3 92 28 93 14 1 31 2 38 3 9 1 12 17 10 59 l-3 57 -147 3 c-80 1 -148 -1
-151 -5z"/>
<path d="M4339 2743 c-7 -85 -3 -401 4 -410 6 -8 33 -13 68 -13 68 0 67 -2 71
123 l3 78 40 -48 c32 -38 41 -58 45 -98 l5 -50 65 0 65 0 3 218 2 218 -67 -3
-68 -3 -5 -64 -5 -64 -59 67 -58 66 -54 0 c-44 0 -54 -3 -55 -17z"/>
</g>
</svg>
